<svg xmlns="http://www.w3.org/2000/svg" xmlns:xlink="http://www.w3.org/1999/xlink" viewBox="0 0 512 512"><defs><linearGradient id="linear-gradient" x1="42.48" y1="218.58" x2="469.52" y2="218.58" gradientUnits="userSpaceOnUse"><stop offset="0" stop-color="#e6ecf0" id="id_106"></stop><stop offset="1" stop-color="#5f84a2" id="id_107"></stop></linearGradient><linearGradient id="linear-gradient-2" x1="408.98" y1="371.64" x2="138.35" y2="371.64" gradientUnits="userSpaceOnUse"><stop offset="0" stop-color="#3e6b96" id="id_108"></stop><stop offset="0.35" stop-color="#1c3b59" id="id_109"></stop><stop offset="0.73" stop-color="#24527d" id="id_110"></stop><stop offset="1" stop-color="#23517d" id="id_111"></stop></linearGradient><linearGradient id="linear-gradient-3" x1="139.36" y1="371.64" x2="326.98" y2="371.64" gradientUnits="userSpaceOnUse"><stop offset="0" stop-color="#e6ecf0" id="id_112"></stop><stop offset="1" stop-color="#a3adb5" id="id_113"></stop></linearGradient><linearGradient id="linear-gradient-4" x1="103.02" y1="302.67" x2="373.65" y2="302.67" gradientUnits="userSpaceOnUse"><stop offset="0" stop-color="#305f8c" id="id_114"></stop><stop offset="1" stop-color="#4c7ead" id="id_115"></stop></linearGradient><linearGradient id="linear-gradient-5" x1="372.64" y1="302.67" x2="185.02" y2="302.67" xlink:href="#linear-gradient-3"></linearGradient></defs><title>Online_E-Book</title><g id="Online_E-Book"><path d="M433.55,268.77h-5.71a47,47,0,0,0-54.5-58.86c0-.78,0-1.57,0-2.37,0-61.35-49.91-111.08-111.47-111.08a111.44,111.44,0,0,0-107.67,82.29,77.44,77.44,0,0,0-71,90H78.45a36.07,36.07,0,0,0-36,36h0a36.07,36.07,0,0,0,36,36h355.1a36.07,36.07,0,0,0,36-36h0A36.07,36.07,0,0,0,433.55,268.77Z" style="fill:url(#linear-gradient)" id="id_101"></path><path d="M374.5,337.16H138.35v12.19H304.69A22.29,22.29,0,0,1,327,371.64h0a22.29,22.29,0,0,1-22.29,22.29H138.35v12.2H374.5A34.59,34.59,0,0,0,409,371.64h0A34.58,34.58,0,0,0,374.5,337.16Z" style="fill:url(#linear-gradient-2)" id="id_102"></path><path d="M327,371.64h0a22.29,22.29,0,0,0-22.29-22.29H139.36v44.58H304.69A22.29,22.29,0,0,0,327,371.64Z" style="fill:url(#linear-gradient-3)" id="id_103"></path><path d="M137.5,268.19H373.65v12.19H207.31A22.29,22.29,0,0,0,185,302.67h0A22.29,22.29,0,0,0,207.31,325H373.65v12.2H137.5A34.59,34.59,0,0,1,103,302.67h0A34.58,34.58,0,0,1,137.5,268.19Z" style="fill:url(#linear-gradient-4)" id="id_104"></path><path d="M185,302.67h0a22.29,22.29,0,0,1,22.29-22.29H372.64V325H207.31A22.29,22.29,0,0,1,185,302.67Z" style="fill:url(#linear-gradient-5)" id="id_105"></path></g></svg>